<?xml version="1.0" encoding="utf-8"?>
<!-- Generator: Adobe Illustrator 22.1.0, SVG Export Plug-In . SVG Version: 6.00 Build 0)  -->
<svg version="1.1" id="Layer_1" xmlns="http://www.w3.org/2000/svg" xmlns:xlink="http://www.w3.org/1999/xlink" x="0px" y="0px"
	 viewBox="0 0 324 372" style="enable-background:new 0 0 324 372;" xml:space="preserve">
<style type="text/css">
	.st0{fill:#EF5A6F;stroke:#010101;stroke-width:3;stroke-miterlimit:10;}
	.st1{fill:#0E0F0F;}
	.st2{fill:#FFFFFF;}
	.st3{fill:#010101;}
	.st4{fill:#FFFFFF;stroke:#231F20;stroke-miterlimit:10;}
	.st5{fill:#231F20;}
	.st6{fill:#E8225C;stroke:#010101;stroke-width:0.75;stroke-miterlimit:10;}
	.st7{fill:#BDE7FB;}
</style>
<g>
	<path class="st0" d="M312.5,246.3c-2.8-8.7-4.6-22.3-1.8-36.4c1.5-7.7,2.2-15.6,2.2-23.7c0-68.9-55.1-126-127-136
		c-32-8-36.4-37.6-36.4-37.6c-24.4,10.7-22.9,29.1-19.7,39.5c-66.3,14.1-115.8,68.7-115.8,134c0,8.1,0.8,16,2.2,23.7
		c1.8,8.7,3,22.5-2.2,37.5c-1.8,5.8-2.7,11.8-2.7,17.9c0,52,68.1,94.1,152.1,94.1c84,0,152.1-42.1,152.1-94.1
		C315.6,258.8,314.5,252.4,312.5,246.3z"/>
	<g>
		<path class="st1" d="M100.2,140.2c-21.7,0-39.3,17.6-39.3,39.2v18.1c0,21.7,17.6,39.2,39.3,39.2c21.7,0,39.2-17.6,39.2-39.2v-18.1
			C139.5,157.8,121.9,140.2,100.2,140.2z"/>
		<path class="st1" d="M226.8,140.6c-21.5,0-38.9,17.4-38.9,39v17.9c0,21.5,17.4,38.9,38.9,38.9c21.5,0,38.9-17.4,38.9-38.9v-17.9
			C265.8,158,248.3,140.6,226.8,140.6z"/>
		<path class="st2" d="M103.1,145.7c-20.4,0-37,16.6-37,37v17c0,20.4,16.5,37,37,37c20.4,0,37-16.6,37-37v-17
			C140,162.3,123.5,145.7,103.1,145.7z"/>
		<path class="st2" d="M224.9,145.7c-20.4,0-37,16.6-37,37v17c0,20.4,16.6,37,37,37c20.4,0,37-16.6,37-37v-17
			C261.9,162.3,245.3,145.7,224.9,145.7z"/>
		<path class="st3" d="M96.7,155.7c-16.9,0-30.6,13.7-30.6,30.6v14.1c0,16.9,13.7,30.6,30.6,30.6c16.9,0,30.6-13.7,30.6-30.6v-14.1
			C127.3,169.4,113.6,155.7,96.7,155.7z"/>
		<path class="st3" d="M218.2,156.3c-16.7,0-30.3,13.6-30.3,30.3v14c0,16.8,13.6,30.3,30.3,30.3c16.8,0,30.3-13.6,30.3-30.3v-14
			C248.6,169.9,235,156.3,218.2,156.3z"/>
	</g>
	<path class="st4" d="M217.4,262.4c0,30-24.3,54.4-54.4,54.4c-30,0-54.4-24.3-54.4-54.4c0-30,24.3-54.4,54.4-54.4
		C193.1,208,217.4,232.4,217.4,262.4z"/>
	<path class="st5" d="M201.9,271.2c0,21.4-17.4,38.8-38.8,38.8c-21.4,0-38.8-17.4-38.8-38.8c0-21.4,17.4-38.8,38.8-38.8
		C184.5,232.4,201.9,249.8,201.9,271.2z"/>
	<path class="st5" d="M167.9,281.5c-3.5,0-5.9-0.2-6.5-0.2c-40.3,0-44.5-15.6-44.6-16.3c-0.3-1.1,0.4-2.3,1.6-2.5
		c1.1-0.3,2.2,0.4,2.5,1.5c0.1,0.3,4.3,13.1,40.6,13.1c0.1,0,0.1,0,0.2,0c0.1,0,10.1,0.7,20.5-0.8c9.2-1.4,20.7-4.9,23.1-13.7
		c0.3-1.1,1.5-1.8,2.6-1.5c1.1,0.3,1.8,1.5,1.5,2.6C205,279.5,180,281.5,167.9,281.5z"/>
	<path class="st6" d="M182.8,278.2c0,0,4.1-2.4,4.3-10.6c0.2-8.3,2.7-17.9,12.2-18.1c9.5-0.1,9.1,10.4,2.9,17.7
		C202.1,267.2,192.3,278.3,182.8,278.2z"/>
	<path class="st3" d="M189.7,277.6c-0.2,0-0.5-0.1-0.6-0.3c-0.2-0.3-0.1-0.8,0.2-1c0.1-0.1,9.6-6.4,10.1-16.4c0-0.4,0.3-0.7,0.7-0.7
		c0.4,0,0.7,0.3,0.7,0.7c-0.5,10.8-10.3,17.3-10.7,17.5C189.9,277.6,189.8,277.6,189.7,277.6z"/>
	<g>
		<path class="st7" d="M206.4,168.7c-1.2,4.7-3.9,8.8-7.7,11.7c4.5,1.6,8.4,4.6,11,8.7c1.2-4.7,3.9-8.8,7.7-11.8
			C212.9,175.7,209,172.7,206.4,168.7z"/>
	</g>
	<g>
		<path class="st7" d="M227.8,178.9c-1.7,6.7-5.6,12.6-11.1,16.9c6.5,2.3,12.2,6.6,15.9,12.5c1.7-6.7,5.6-12.6,11.1-16.9
			C237.2,189.1,231.5,184.8,227.8,178.9z"/>
	</g>
	<g>
		<path class="st7" d="M222.1,163.7c-0.5,2.2-1.8,4.1-3.6,5.5c2.1,0.8,4,2.2,5.2,4.1c0.5-2.2,1.8-4.1,3.6-5.5
			C225.2,167,223.3,165.6,222.1,163.7z"/>
	</g>
	<g>
		<path class="st7" d="M81.7,168.7c-1.2,4.7-3.9,8.8-7.7,11.7c4.5,1.6,8.4,4.6,11,8.7c1.2-4.7,3.9-8.8,7.7-11.8
			C88.3,175.7,84.3,172.7,81.7,168.7z"/>
	</g>
	<g>
		<path class="st7" d="M103.2,178.9c-1.7,6.7-5.6,12.6-11.1,16.9c6.5,2.3,12.2,6.6,15.9,12.5c1.7-6.7,5.6-12.6,11.1-16.9
			C112.5,189.1,106.9,184.8,103.2,178.9z"/>
	</g>
	<g>
		<path class="st7" d="M97.5,163.7c-0.5,2.2-1.8,4.1-3.6,5.5c2.1,0.8,4,2.2,5.2,4.1c0.5-2.2,1.8-4.1,3.6-5.5
			C100.5,167,98.7,165.6,97.5,163.7z"/>
	</g>
</g>
</svg>
